<svg xmlns="http://www.w3.org/2000/svg" fill="currentColor" aria-label="Hand on chest sincere" viewBox="-0.0 -26.5 285.0 285.0"><g transform="translate(0.000000,232.000000) scale(0.100000,-0.100000)"><path d="M1780 2100 c-19 -15 -21 -20 -9 -20 19 0 29 -20 29 -55 0 -24 10 -51
35 -95 8 -14 15 -19 15 -12 0 6 12 12 27 12 32 0 23 11 -20 25 -31 10 -32 12
-42 87 l-10 77 -25 -19z M1065 2034 l-7 -65 -51 -24 c-50 -22 -50 -23 -15 -18
32 5 37 3 41 -18 4 -22 4 -22 6 4 0 15 5 27 10 27 12 0 31 56 31 93 0 26 3 29
25 25 21 -4 23 -3 13 9 -6 8 -19 18 -29 23 -15 8 -18 2 -24 -56z M1719 2053
c-13 -17 -13 -17 6 -3 11 8 22 16 24 17 2 2 0 3 -6 3 -6 0 -17 -8 -24 -17z
M1177 2019 c7 -7 15 -10 18 -7 3 3 -2 9 -12 12 -14 6 -15 5 -6 -5z M1610 1999
c-59 -26 -75 -28 -182 -29 -94 0 -127 4 -168 20 -58 23 -68 18 -12 -6 75 -33
171 -46 242 -33 60 11 190 61 190 74 0 3 -1 5 -2 4 -2 -1 -32 -14 -68 -30z
M895 1910 c-11 -4 -40 -13 -65 -20 -59 -16 -101 -32 -97 -36 2 -2 32 5 68 16
35 11 74 20 87 20 13 0 30 7 38 15 18 17 3 20 -31 5z M1946 1905 c4 -10 19
-15 43 -15 l36 1 -40 14 c-22 8 -41 15 -42 15 -1 0 0 -7 3 -15z M2065 1870
c27 -12 43 -12 25 0 -8 5 -22 9 -30 9 -10 0 -8 -3 5 -9z M2140 1846 c0 -2 9
-6 20 -9 11 -3 18 -1 14 4 -5 9 -34 13 -34 5z M660 1830 c-13 -8 -13 -10 2
-10 9 0 20 5 23 10 8 13 -5 13 -25 0z M2191 1827 c9 -8 89 -36 89 -32 0 6 -69
35 -83 35 -6 0 -8 -2 -6 -3z M614 1810 c-12 -5 -25 -13 -28 -19 -4 -5 7 -3 24
5 16 9 30 17 30 20 0 5 0 5 -26 -6z M1670 1744 c-14 -8 -18 -14 -10 -14 8 1
24 7 34 15 24 19 10 18 -24 -1z M2360 1746 c0 -2 8 -10 18 -17 15 -13 16 -12
3 4 -13 16 -21 21 -21 13z M1227 1719 c7 -7 15 -10 18 -7 3 3 -2 9 -12 12 -14
6 -15 5 -6 -5z M1615 1720 c-16 -7 -17 -9 -3 -9 9 -1 20 4 23 9 7 11 7 11 -20
0z M1305 1695 c51 -17 188 -17 240 0 l40 13 -60 -6 c-76 -9 -124 -9 -200 0
l-60 7 40 -14z M2420 1686 c0 -2 8 -10 18 -17 15 -13 16 -12 3 4 -13 16 -21
21 -21 13z M393 1585 c-3 -9 -3 -18 -1 -21 3 -3 8 4 11 16 6 23 -1 27 -10 5z
M1858 1573 c6 -2 18 -2 25 0 6 3 1 5 -13 5 -14 0 -19 -2 -12 -5z M2500 1561
c0 -6 4 -13 10 -16 6 -3 7 1 4 9 -7 18 -14 21 -14 7z M1398 1543 c6 -2 18 -2
25 0 6 3 1 5 -13 5 -14 0 -19 -2 -12 -5z M1931 1526 c-1 -22 2 -26 12 -18 6 6
28 12 47 15 34 4 34 4 -7 5 -23 1 -44 8 -46 15 -3 6 -6 -1 -6 -17z M2524 1515
c2 -11 13 -45 24 -75 11 -30 26 -79 32 -108 7 -29 15 -51 18 -48 5 6 -10 68
-33 141 -16 48 -48 119 -41 90z M1461 1465 c0 -35 1 -37 10 -17 6 15 5 30 -1
40 -7 13 -9 8 -9 -23z M2061 1458 c-1 -15 -8 -33 -16 -41 -12 -13 -11 -15 8
-19 20 -4 22 -1 19 31 -5 48 -10 62 -11 29z M307 1385 c-11 -25 -17 -50 -14
-57 3 -8 6 -6 6 5 1 10 8 32 17 48 8 17 14 34 12 40 -2 5 -11 -11 -21 -36z
M1441 1378 c-8 -13 -21 -33 -29 -46 -14 -22 -13 -22 30 5 25 15 40 29 33 31
-8 2 -15 10 -17 18 -2 11 -7 8 -17 -8z M2092 1345 c0 -16 2 -22 5 -12 2 9 2
23 0 30 -3 6 -5 -1 -5 -18z M274 1283 c-3 -16 -10 -41 -16 -56 -6 -15 -8 -30
-5 -33 3 -3 10 10 15 28 16 51 23 88 17 88 -2 0 -7 -12 -11 -27z M1101 1254
c0 -11 3 -14 6 -6 3 7 2 16 -1 19 -3 4 -6 -2 -5 -13z M2037 1244 c-15 -21 -16
-24 -2 -24 11 0 15 -11 16 -42 1 -36 2 -39 8 -18 5 14 5 44 2 67 l-6 41 -18
-24z M634 1215 c3 -27 9 -97 13 -154 l6 -104 -29 6 c-16 3 -42 8 -59 12 -22 4
-20 2 10 -9 22 -9 47 -16 56 -16 19 0 29 -28 29 -87 0 -26 -5 -43 -12 -43 -6
0 -8 -3 -5 -6 4 -4 18 1 31 10 14 9 32 16 40 16 8 0 17 4 20 8 3 5 -8 7 -23 4
l-28 -4 -12 119 c-16 171 -32 287 -38 293 -3 3 -3 -17 1 -45z M2606 1220 c3
-25 10 -74 15 -110 23 -165 23 -160 3 -176 -13 -10 -8 -9 14 2 28 16 45 54 24
54 -5 0 -15 39 -22 88 -7 48 -19 110 -26 137 l-14 50 6 -45z M1083 1215 c-3
-9 -3 -18 -1 -21 3 -3 8 4 11 16 6 23 -1 27 -10 5z M2252 1123 c-30 -246 -42
-848 -17 -848 6 0 11 102 13 281 l2 282 33 6 c17 3 57 8 87 12 30 3 88 15 127
25 89 23 90 23 96 2 3 -12 5 -9 6 8 l1 26 -87 -22 c-49 -12 -127 -25 -175 -28
l-88 -7 0 63 c0 35 5 112 11 170 14 137 7 160 -9 30z M1058 1095 c-8 -41 -12
-72 -8 -70 9 5 34 134 28 140 -2 2 -11 -29 -20 -70z M232 1118 c-5 -24 -16
-68 -22 -98 -7 -30 -18 -58 -24 -62 -8 -5 -7 -8 2 -8 7 0 22 -9 34 -19 17 -16
19 -27 14 -63 -4 -24 -9 -115 -12 -203 -5 -135 -3 -166 10 -195 10 -22 14 -26
10 -10 -14 57 -16 222 -4 330 16 156 19 162 66 177 39 13 29 12 -55 -4 l-34
-6 7 59 c4 32 12 76 17 98 6 21 8 40 6 42 -2 3 -9 -15 -15 -38z M408 983 c18
-2 45 -2 60 0 15 2 0 4 -33 4 -33 0 -45 -2 -27 -4z M885 930 c-3 -6 1 -7 9 -4
18 7 21 14 7 14 -6 0 -13 -4 -16 -10z M2601 567 c2 -263 10 -332 24 -232 7 44
-13 496 -21 505 -3 2 -4 -120 -3 -273z M1625 740 c-3 -6 1 -7 9 -4 18 7 21 14
7 14 -6 0 -13 -4 -16 -10z M1515 680 c-16 -7 -17 -9 -3 -9 9 -1 20 4 23 9 7
11 7 11 -20 0z M1315 635 c-29 -14 -28 -14 20 -8 71 9 102 22 50 22 -22 -1
-53 -7 -70 -14z M250 401 c0 -6 4 -13 10 -16 6 -3 7 1 4 9 -7 18 -14 21 -14 7z
M970 400 c-9 -6 -10 -10 -3 -10 6 0 15 5 18 10 8 12 4 12 -15 0z M915 360
c-16 -11 -25 -20 -20 -20 10 0 64 39 55 40 -3 0 -18 -9 -35 -20z M325 280 c10
-11 20 -20 23 -20 3 0 -3 9 -13 20 -10 11 -20 20 -23 20 -3 0 3 -9 13 -20z
M795 290 c-3 -6 1 -7 9 -4 18 7 21 14 7 14 -6 0 -13 -4 -16 -10z M680 241 c-8
-5 -50 -15 -93 -22 -68 -11 -87 -11 -137 2 -66 17 -73 10 -11 -11 23 -7 41
-17 41 -22 0 -4 18 -8 40 -8 22 0 40 4 40 8 0 5 24 14 53 21 50 13 113 40 92
40 -5 0 -17 -4 -25 -8z"/></g></svg>